<svg width="708" height="682" viewBox="0 0 708 682" fill="none" xmlns="http://www.w3.org/2000/svg">
<rect width="708" height="681.591" fill="black" fill-opacity="0"/>
<path d="M384.196 642.626C313.973 653.965 292.091 580.242 222.374 545.304C173.954 521.039 65.2743 516.987 48.4941 458.065C35.6315 412.899 96.0217 380.627 108.77 299.401C119.824 228.969 70.2217 132.52 120.284 81.7606C174.788 26.4983 244.336 79.8002 321.342 70.0733C398.348 60.3463 433.82 -6.21643 500.356 33.7528C561.471 70.4656 537.43 150.295 565.652 215.765C598.198 291.266 682.56 300.419 663.462 380.386C647.722 446.292 563.194 442.788 512.899 488.195C451.606 543.531 454.42 631.287 384.196 642.626Z" fill="#B487FF"/>
<g opacity="0.1">
<rect width="153.402" height="155.041" fill="black" fill-opacity="0" transform="translate(385.749 122.851)"/>
<path opacity="0.1" d="M388.018 123.582L385.749 255.2C385.749 255.2 467.897 255.2 537.793 277.891L539.151 144.927C539.151 144.927 427.049 118.132 388.018 123.582Z" fill="black"/>
</g>
<path d="M386.231 121.2L383.962 252.818C383.962 252.818 466.11 252.818 536.006 275.509L537.364 142.544C537.364 142.544 425.262 115.75 386.231 121.2Z" fill="#F7F7FD"/>
<g opacity="0.1">
<rect width="153.402" height="155.034" fill="black" fill-opacity="0" transform="translate(195.645 126.627)"/>
<path opacity="0.1" d="M346.778 127.352L349.047 258.97C349.047 258.97 266.899 258.97 197.009 281.661L195.645 148.697C195.645 148.697 307.747 121.932 346.778 127.352Z" fill="black"/>
</g>
<path d="M348.564 124.374L350.834 255.992C350.834 255.992 268.686 255.992 198.796 278.683L197.432 145.719C197.432 145.719 309.533 118.954 348.564 124.374Z" fill="#F7F7FD"/>
<g opacity="0.2">
<rect width="82.2729" height="83.1356" fill="black" fill-opacity="0" transform="translate(230.614 139.339)"/>
<path opacity="0.2" d="M311.666 139.727L312.887 210.307C312.887 210.307 268.811 210.307 231.347 222.474L230.614 151.168C230.614 151.168 290.736 136.821 311.666 139.727Z" fill="#6C63FF"/>
</g>
<g opacity="0.1">
<rect width="88.0504" height="196.499" fill="black" fill-opacity="0" transform="translate(587.569 171.995)"/>
<path opacity="0.1" d="M587.569 171.995V302.238C587.569 302.238 614.371 299.057 670.628 368.494L675.619 238.251C675.619 238.251 617.07 175.169 587.569 171.995Z" fill="black"/>
</g>
<path d="M586.377 170.208V300.451C586.377 300.451 613.18 297.271 669.436 366.707L674.428 236.464C674.428 236.464 615.878 173.382 586.377 170.208Z" fill="#F7F7FD"/>
<g opacity="0.1">
<rect width="88.0445" height="196.499" fill="black" fill-opacity="0" transform="translate(66.3004 172.59)"/>
<path opacity="0.1" d="M154.345 172.59V302.833C154.345 302.833 127.566 299.653 71.3215 369.089L66.3004 238.846C66.3004 238.846 124.844 175.765 154.345 172.59Z" fill="black"/>
</g>
<path d="M156.132 170.208V300.451C156.132 300.451 129.353 297.271 73.1083 366.707L68.0873 236.464C68.0873 236.464 126.631 173.382 156.132 170.208Z" fill="#F7F7FD"/>
<g opacity="0.2">
<rect width="55.6487" height="18.0574" fill="black" fill-opacity="0" transform="translate(408.18 148.577)"/>
<path opacity="0.2" d="M408.18 148.577L463.829 158.529V166.635L408.18 155.95V148.577Z" fill="#6C63FF"/>
</g>
<path d="M300.968 226.893L245.326 236.845V244.951L300.968 234.266V226.893Z" fill="white"/>
<path d="M408.919 163.687L510.626 184.692V192.798L408.919 171.06V163.687Z" fill="white"/>
<path d="M408.919 178.796L510.626 199.796V207.907L408.919 186.163V178.796Z" fill="white"/>
<g opacity="0.2">
<rect width="22.842" height="24.8765" fill="black" fill-opacity="0" transform="translate(610.095 212.267)"/>
<path opacity="0.2" d="M610.095 212.267V219.419L631.912 237.143L632.937 231.009L610.095 212.267Z" fill="#6C63FF"/>
</g>
<path d="M610.095 281.351V288.504L631.912 306.228L632.937 300.094L610.095 281.351Z" fill="white"/>
<path d="M610.44 224.535L610.095 231.694L651.342 270.542L650.663 262.365L610.44 224.535Z" fill="white"/>
<path d="M610.095 237.828V244.641L651.342 284.18V275.318L610.095 237.828Z" fill="white"/>
<g opacity="0.2">
<rect width="41.2407" height="46.0069" fill="black" fill-opacity="0" transform="translate(91.1675 213.815)"/>
<path opacity="0.2" d="M132.069 213.815L132.408 220.974L91.1675 259.822L91.8465 251.645L132.069 213.815Z" fill="#6C63FF"/>
</g>
<g opacity="0.2">
<rect width="41.2407" height="46.3523" fill="black" fill-opacity="0" transform="translate(91.1675 227.108)"/>
<path opacity="0.2" d="M132.408 227.108V233.921L91.1675 273.46V264.598L132.408 227.108Z" fill="#6C63FF"/>
</g>
<path opacity="0.1" d="M187.866 438.478C206.617 438.478 221.817 435.742 221.817 432.367C221.817 428.993 206.617 426.257 187.866 426.257C169.116 426.257 153.916 428.993 153.916 432.367C153.916 435.742 169.116 438.478 187.866 438.478Z" fill="#6C63FF"/>
<path d="M107.351 398.772C107.351 398.772 110.62 403.048 105.838 409.492C101.055 415.936 97.1118 421.403 98.6902 425.429C98.6902 425.429 105.903 413.434 111.794 413.268C117.684 413.101 113.813 406.014 107.351 398.772Z" fill="#6C63FF"/>
<path opacity="0.1" d="M107.351 398.772C107.637 399.183 107.862 399.635 108.018 400.112C113.747 406.842 116.803 413.125 111.294 413.285C106.165 413.428 99.9767 422.606 98.5353 424.923C98.583 425.095 98.6426 425.274 98.7081 425.447C98.7081 425.447 105.921 413.452 111.812 413.285C117.702 413.119 113.813 406.014 107.351 398.772Z" fill="black"/>
<path d="M113.432 404.227C113.432 405.734 113.265 406.955 113.057 406.955C112.848 406.955 112.675 405.734 112.675 404.227C112.675 402.72 112.89 403.429 113.098 403.429C113.307 403.429 113.432 402.714 113.432 404.227Z" fill="#FFD037"/>
<path d="M115.522 406.014C114.2 406.734 113.045 407.169 112.943 406.99C112.842 406.812 113.837 406.073 115.159 405.353C116.481 404.632 115.957 405.156 116.058 405.353C116.16 405.549 116.845 405.299 115.522 406.014Z" fill="#FFD037"/>
<path d="M90.0656 398.772C90.0656 398.772 86.8076 403.036 91.5725 409.51C96.3375 415.983 100.298 421.421 98.72 425.447C98.72 425.447 91.507 413.452 85.6164 413.285C79.7257 413.119 83.6091 406.014 90.0656 398.772Z" fill="#6C63FF"/>
<path opacity="0.1" d="M90.0656 398.772C89.7817 399.185 89.5571 399.636 89.3985 400.112C83.6687 406.842 80.6132 413.125 86.1226 413.285C91.2569 413.428 97.4394 422.606 98.8808 424.923C98.834 425.101 98.7763 425.276 98.7081 425.447C98.7081 425.447 91.4951 413.452 85.6045 413.285C79.7138 413.119 83.6091 406.014 90.0656 398.772Z" fill="black"/>
<path d="M83.9844 404.227C83.9844 405.734 84.1511 406.955 84.3596 406.955C84.5681 406.955 84.7408 405.734 84.7408 404.227C84.7408 402.72 84.5264 403.429 84.3179 403.429C84.1094 403.429 83.9844 402.714 83.9844 404.227Z" fill="#FFD037"/>
<path d="M81.8997 406.014C83.222 406.734 84.3715 407.169 84.4728 406.99C84.574 406.812 83.5793 406.073 82.2571 405.353C80.9348 404.632 81.4589 405.156 81.3577 405.353C81.2564 405.549 80.5774 405.299 81.8997 406.014Z" fill="#FFD037"/>
<path d="M85.0207 424.887C85.0207 424.887 94.1695 424.607 96.9331 422.642C99.6968 420.676 111.002 418.336 111.687 421.486C112.372 424.637 125.434 437.144 115.105 437.227C104.777 437.31 91.108 435.619 88.3562 433.94C85.6044 432.26 85.0207 424.887 85.0207 424.887Z" fill="#A8A8A8"/>
<path opacity="0.2" d="M115.29 436.131C104.962 436.215 91.2926 434.523 88.5408 432.844C86.4443 431.569 85.6104 426.989 85.3305 424.875H85.0267C85.0267 424.875 85.6223 432.254 88.3562 433.928C91.0901 435.601 104.777 437.299 115.105 437.215C118.084 437.215 119.12 436.131 119.06 434.559C118.649 435.518 117.512 436.113 115.29 436.131Z" fill="black"/>
<path opacity="0.1" d="M423.666 351.925C454.588 351.925 479.654 347.632 479.654 342.337C479.654 337.041 454.588 332.748 423.666 332.748C392.745 332.748 367.678 337.041 367.678 342.337C367.678 347.632 392.745 351.925 423.666 351.925Z" fill="#6C63FF"/>
<path d="M412.373 212.928C412.1 213.51 411.9 214.124 411.777 214.756C411.742 214.915 411.706 215.082 411.67 215.256C411.313 217.079 411.075 219.372 410.95 220.706C410.89 221.373 410.86 221.801 410.86 221.801C410.86 221.801 397.941 220.938 400.181 218.77C400.758 218.172 401.169 217.432 401.372 216.626C401.438 216.394 401.491 216.162 401.539 215.923C401.646 215.383 401.715 214.836 401.747 214.286C401.747 214.149 401.747 214.012 401.747 213.869C401.776 212.975 401.735 212.081 401.622 211.195C401.622 211.195 405.821 211.195 408.99 211.534C411.122 211.778 412.784 212.201 412.373 212.928Z" fill="#D38884"/>
<path d="M389.978 274.395C385.576 274.252 388.822 265.087 389.329 263.854C389.835 262.621 388.578 259.602 388.578 259.602C388.578 259.602 387.089 250.871 387.089 250.299C387.013 249.109 386.846 247.926 386.589 246.761C386.434 245.572 386.641 244.364 387.184 243.295C387.691 242.503 387.613 239.329 387.613 239.329V235.219L388.596 233.921L391.104 236.303L391.8 236.958L393.027 241.556L392.593 248.143L392.36 254.557L393.879 263.431C393.879 263.431 394.409 274.544 389.978 274.395Z" fill="#D38884"/>
<path opacity="0.1" d="M391.372 237.393L387.619 235.833V235.225L388.596 233.927L391.11 236.297L391.372 237.393Z" fill="black"/>
<path d="M389.644 228.007C389.162 229.192 388.812 230.426 388.602 231.688C388.408 232.898 388.078 234.083 387.619 235.219L391.789 236.952L389.644 228.007Z" fill="#4C4981"/>
<path opacity="0.05" d="M389.644 228.007C389.162 229.192 388.812 230.426 388.602 231.688C388.408 232.898 388.078 234.083 387.619 235.219L391.789 236.952L389.644 228.007Z" fill="black"/>
<path d="M422.856 319.122L422.511 319.86C422.511 319.86 422.135 322.308 422.135 322.367C422.135 322.427 421.051 324.059 421.051 324.059L418.329 324.654L417.174 324.512C417.112 323.839 417.009 323.17 416.864 322.51C416.822 322.326 416.781 322.135 416.727 321.945C416.32 320.418 415.679 318.963 414.827 317.633C414.827 317.633 412.808 312.654 412.087 312.005C411.367 311.356 408.621 304.787 408.913 303.202C409.067 302.333 408.942 299.415 408.799 296.985C408.68 295.002 408.549 293.334 408.549 293.334L415.405 289.284L416.203 290.541L416.679 291.285C416.679 291.285 416.679 291.428 416.65 291.666V291.756C416.571 292.769 416.371 293.768 416.054 294.734C416.054 294.734 415.542 298.414 416.054 299.063C416.566 299.712 418.198 308.39 418.562 312.404C418.562 312.529 418.562 312.654 418.562 312.767C418.705 314.613 419.848 316.257 420.998 317.46C421.069 317.543 421.147 317.621 421.224 317.698C421.735 318.21 422.28 318.685 422.856 319.122Z" fill="#D38884"/>
<path opacity="0.1" d="M417.174 324.5L418.329 324.642L421.051 324.047C421.051 324.047 422.135 322.409 422.135 322.356C422.135 322.302 422.511 319.848 422.511 319.848L422.856 319.11L422.898 319.02C422.232 318.559 421.607 318.043 421.027 317.478C420.962 317.418 420.896 317.359 420.837 317.293C420.777 317.228 421.224 319.676 419.151 320.742C418.145 321.26 417.317 321.659 416.739 321.933L417.174 324.5Z" fill="black"/>
<path d="M423.333 319.467L422.945 320.295C422.945 320.295 422.57 322.743 422.57 322.802C422.57 322.862 421.486 324.494 421.486 324.494L418.764 325.089L417.198 324.905C417.198 324.589 417.144 324.142 417.067 323.6C417.019 323.273 416.953 322.909 416.864 322.516C417.46 322.248 418.383 321.808 419.568 321.194C421.647 320.128 421.254 317.746 421.254 317.746C421.704 318.194 422.179 318.616 422.677 319.009C422.963 319.211 423.196 319.372 423.333 319.467Z" fill="#CEDDF9"/>
<path opacity="0.1" d="M423.333 319.467L422.945 320.295C422.945 320.295 422.57 322.743 422.57 322.802C422.57 322.862 421.486 324.494 421.486 324.494L418.764 325.089L417.198 324.905C417.198 324.589 417.144 324.142 417.067 323.6C417.4 323.615 417.731 323.661 418.055 323.737C418.055 323.737 421.772 324.529 421.951 321.587C422.058 319.92 422.403 319.265 422.677 319.009C422.963 319.211 423.196 319.372 423.333 319.467Z" fill="black"/>
<path d="M423.059 319.271C423.059 319.271 422.135 319.068 421.951 322.004C421.766 324.94 418.055 324.154 418.055 324.154C418.055 324.154 416.233 323.702 416.215 324.458C416.276 325.157 416.44 325.844 416.703 326.495C416.703 326.495 416.811 328.246 417.156 328.663C417.501 329.08 417.281 330.628 417.281 330.628C417.281 330.628 417.424 331.783 420.295 330.628C420.295 330.628 422.856 330.098 424.982 326.912C425.054 326.804 424.732 326.477 426.591 325.81C428.449 325.143 433.738 320.867 433.357 318.776C433.316 318.43 433.174 318.104 432.95 317.837C432.725 317.571 432.428 317.375 432.094 317.276C431.816 317.201 431.526 317.183 431.24 317.222C430.955 317.261 430.681 317.356 430.432 317.502C429.93 317.774 429.411 318.012 428.878 318.217C428.17 318.503 427.423 318.682 426.662 318.747C426.079 318.796 425.502 318.906 424.941 319.074C424.342 319.308 423.692 319.375 423.059 319.271Z" fill="#CC8294"/>
<path d="M402.021 299.057C401.611 299.397 401.257 299.799 400.973 300.249C399.925 301.851 399.293 304.09 398.591 305.055C397.673 306.305 397.399 308.735 397.399 308.735C397.155 310.331 393.772 318.86 392.855 320.372C391.937 321.885 390.663 326 390.663 326C389.883 326.977 389.93 328.43 390.008 329.121C390.008 329.24 390.008 329.336 390.043 329.401C390.079 329.467 390.043 329.514 390.043 329.514V329.556L388.793 331.682L384.814 331.128L382.759 329.735C382.927 329.461 383.076 329.177 383.206 328.883C384.308 326.429 385.088 322.046 385.088 322.046C385.088 322.046 386.196 317.043 386.112 315.876C386.14 314.283 386.25 312.693 386.44 311.111C386.44 311.111 389.573 301.553 390.573 300.004C390.991 299.392 391.248 298.686 391.324 297.95C391.343 297.801 391.343 297.651 391.324 297.503L392.67 296.163C392.67 296.163 403.749 297.682 402.021 299.057Z" fill="#D38884"/>
<path opacity="0.1" d="M390.085 329.097C390.085 329.097 390.085 329.216 390.085 329.413V329.568L388.834 331.694L384.856 331.14L382.801 329.746C382.969 329.473 383.118 329.189 383.247 328.895C384.248 328.609 386.535 329.419 386.535 329.419C386.535 329.419 389.007 329.889 390.049 329.133C390.049 329.127 390.061 329.109 390.085 329.097Z" fill="black"/>
<path d="M389.114 334.773L385.076 335.738L381.371 332.998L381.562 331.456C381.82 331.297 382.05 331.096 382.241 330.86C382.511 330.543 382.696 330.161 382.777 329.752C382.991 328.615 386.511 329.86 386.511 329.86C386.511 329.86 389.084 330.348 390.085 329.532C390.015 330.28 390.079 331.034 390.276 331.759C390.371 332.113 390.58 332.425 390.871 332.647C391.902 333.356 389.114 334.773 389.114 334.773Z" fill="#CEDDF9"/>
<path opacity="0.1" d="M389.114 334.773L385.076 335.738L381.371 332.998L381.562 331.456C381.82 331.297 382.05 331.096 382.241 330.86C382.509 330.86 382.801 330.86 383.051 330.86C383.646 330.92 385.135 333.57 385.135 333.57C388.793 333.814 389.9 332.617 390.276 331.736C390.371 332.089 390.58 332.401 390.871 332.623C391.902 333.356 389.114 334.773 389.114 334.773Z" fill="black"/>
<path d="M385.135 334.017C385.135 334.017 383.67 331.366 383.051 331.313C382.527 331.283 382.002 331.283 381.478 331.313C381.478 331.313 379.858 335.154 379.263 335.482C378.667 335.809 377.797 337.65 377.797 337.65C377.797 337.65 382.086 341.818 386.231 341.003C387.554 341.022 388.855 341.346 390.031 341.949C391.949 342.95 399.96 342.194 400.937 340.437C401.664 339.115 401.956 338.156 401.313 337.459C401.12 337.26 400.883 337.11 400.621 337.02C400.359 336.931 400.079 336.906 399.806 336.947C398.799 337.084 396.536 337.06 394.552 334.624C394.552 334.624 390.895 331.277 390.597 331.271C390.299 331.265 390.841 334.398 385.135 334.017Z" fill="#CC8294"/>
<path opacity="0.1" d="M416.685 291.72L416.656 291.756C416.405 292.03 414.642 293.965 414.106 294.102C413.22 294.437 412.353 294.821 411.51 295.252C411.51 295.252 410.425 296.699 409.562 296.77C409.301 296.808 409.045 296.876 408.799 296.973C408.68 294.99 408.549 293.322 408.549 293.322L415.405 289.284L416.203 290.541C416.382 291.047 416.584 291.518 416.65 291.666L416.685 291.72Z" fill="black"/>
<path d="M391.765 263.854C391.765 263.854 389.096 267.332 391.765 271.947C393.2 274.542 395.053 276.882 397.25 278.874L406.339 297.705C406.339 297.705 408.722 296.407 409.592 296.336C410.461 296.264 411.539 294.823 411.539 294.823C412.383 294.389 413.25 294.003 414.136 293.667C414.732 293.525 416.715 291.285 416.715 291.285C416.715 291.285 415.721 289.123 415.941 288.546C416.161 287.968 415.292 286.521 415.292 286.521C415.021 285.797 414.822 285.049 414.696 284.287C414.696 283.692 413.755 282.34 413.755 282.34C413.755 282.34 412.82 280.893 412.82 280.101C412.82 279.309 411.42 276.182 411.42 276.182L411.057 262.484L391.765 263.854Z" fill="#CEDDF9"/>
<path opacity="0.05" d="M416.685 291.285C416.685 291.285 414.684 293.519 414.106 293.667C413.22 294.003 412.353 294.389 411.51 294.823C411.51 294.823 410.425 296.264 409.562 296.336C408.94 296.465 408.338 296.679 407.775 296.973C407.001 297.324 406.304 297.705 406.304 297.705L397.209 278.874C396.413 278.18 395.674 277.423 394.999 276.611C393.767 275.159 392.671 273.598 391.723 271.947C390.681 270.273 390.31 268.267 390.687 266.331C390.856 265.444 391.209 264.602 391.723 263.86L398.191 263.401L411.075 262.484L411.182 266.54L411.42 276.182C411.42 276.182 411.629 276.664 411.891 277.302C412.3 278.187 412.602 279.119 412.79 280.077C412.79 280.875 413.725 282.316 413.725 282.316C413.725 282.316 414.666 283.686 414.666 284.264C414.793 285.027 414.992 285.777 415.262 286.503C415.262 286.503 416.131 287.944 415.917 288.516C415.703 289.088 416.685 291.285 416.685 291.285Z" fill="black"/>
<path opacity="0.1" d="M402.021 299.057C401.611 299.397 401.257 299.799 400.973 300.248C397.048 300.534 392.485 298.462 391.3 297.914C391.319 297.766 391.319 297.615 391.3 297.467L392.646 296.127C392.646 296.127 403.749 297.682 402.021 299.057Z" fill="black"/>
<path d="M413.6 268.124C413.6 268.124 413.005 270.143 412.808 271.007C412.611 271.87 412.159 276.134 412.159 276.134L411.909 277.325L407.787 296.979L406.887 301.249C405.303 302.119 401.336 299.802 401.336 299.802C396.714 300.314 391.014 297.354 391.014 297.354C391.014 297.354 391.949 294.323 391.735 292.81C391.521 291.297 393.033 290.064 393.033 290.064C392.676 288.695 393.969 282.703 393.969 282.703C393.969 282.703 394.26 280.47 395.344 279.892C396.428 279.315 395.201 278.451 394.91 277.939C394.807 277.498 394.843 277.037 395.011 276.617C395.105 276.284 395.216 275.955 395.344 275.634C392.593 272.883 392.17 268.583 392.164 266.194C392.156 265.612 392.182 265.029 392.241 264.449L398.197 263.407L411.212 261.132L412.54 265.218L412.873 266.242L413.6 268.124Z" fill="#CEDDF9"/>
<path opacity="0.1" d="M412.373 212.928C412.1 213.51 411.9 214.124 411.777 214.756C411.742 214.915 411.706 215.082 411.67 215.256C410.414 216.072 409.639 216.078 408.031 216.078C407.477 216.078 407.167 215.018 406.643 214.887C406.643 214.887 405.857 212.052 405.637 214.44C404.124 214.131 402.819 215.31 401.747 214.28C401.747 214.143 401.747 214.006 401.747 213.863C401.776 212.969 401.735 212.075 401.622 211.189C401.622 211.189 405.821 211.189 408.99 211.528C411.122 211.778 412.784 212.201 412.373 212.928Z" fill="black"/>
<path d="M415.351 208.068C415.349 209.26 415.083 210.437 414.571 211.514C414.059 212.591 413.314 213.54 412.39 214.294C411.466 215.048 410.387 215.587 409.229 215.873C408.071 216.159 406.865 216.184 405.696 215.947C404.378 215.676 403.15 215.078 402.123 214.208C401.096 213.339 400.304 212.226 399.819 210.971C399.334 209.716 399.171 208.359 399.347 207.025C399.522 205.692 400.029 204.423 400.822 203.336C401.614 202.249 402.667 201.378 403.884 200.803C405.1 200.228 406.442 199.968 407.785 200.046C409.128 200.124 410.43 200.538 411.572 201.249C412.714 201.961 413.659 202.948 414.321 204.119C415.004 205.323 415.36 206.684 415.351 208.068Z" fill="#D38884"/>
<path opacity="0.1" d="M410.95 220.706C410.89 221.373 410.86 221.801 410.86 221.801C410.86 221.801 397.941 220.938 400.181 218.77C400.758 218.172 401.169 217.432 401.372 216.626L406.977 217.543C406.977 217.543 408.561 218.77 409.788 219.925C410.138 220.238 410.528 220.5 410.95 220.706Z" fill="black"/>
<path opacity="0.1" d="M412.879 266.653C412.311 266.729 411.733 266.686 411.182 266.528C410.943 266.452 410.714 266.35 410.497 266.224C409.413 265.575 405.809 266.373 405.809 266.373C405.809 266.373 395.994 267.022 395.559 266.373C395.315 265.998 393.581 266.052 392.164 266.165C391.568 266.212 391.062 266.272 390.699 266.308C390.867 265.42 391.221 264.578 391.735 263.836L398.203 263.377L411.218 261.102L412.546 265.188C412.632 265.682 412.743 266.171 412.879 266.653Z" fill="black"/>
<path d="M406.959 217.978L399.919 216.823C399.794 217.1 399.611 217.347 399.382 217.546C399.152 217.746 398.882 217.893 398.591 217.978C397.655 218.192 393.468 220.36 391.592 222.957L389.716 225.559C389.716 225.559 388.197 227.435 388.703 228.948C389.209 230.461 389.787 235.589 389.787 235.589L390.508 241.288C390.508 241.288 391.878 245.403 391.449 247.208C391.02 249.012 391.663 256.588 391.663 256.588L390.222 265.968C390.222 265.968 395.124 265.319 395.583 265.968C396.041 266.617 405.833 265.968 405.833 265.968C405.833 265.968 409.407 265.17 410.521 265.819C411.249 266.212 412.083 266.364 412.903 266.254C412.903 266.254 412.04 263.276 412.54 261.638C413.04 260.001 412.903 256.945 412.903 256.945C412.903 256.945 413.624 252.544 413.261 251.752C412.897 250.96 414.059 248.071 414.059 248.071L417.883 227.942C417.883 227.942 417.418 224.333 415.375 223.106C413.332 221.879 411.027 221.516 409.8 220.366C408.573 219.217 406.959 217.978 406.959 217.978Z" fill="#4C4981"/>
<path d="M410.229 237.822V240.204L412.451 246.195L413.255 251.752C413.255 251.752 414.702 255.718 414.702 257.112C414.702 258.506 418.234 265.122 418.234 265.122C418.234 265.122 419.199 267.362 418.716 267.79C418.234 268.219 414.053 277.748 419.312 277.462C424.571 277.176 422.922 267.219 422.922 267.219L422.201 262.889C422.201 262.889 421.188 252.062 421.188 251.27C421.188 251.27 419.89 246.654 419.747 245.642C419.604 244.629 418.663 239.507 418.663 239.507L417.871 236.19L410.229 237.822Z" fill="#D38884"/>
<path opacity="0.1" d="M407.698 245.326L399.853 249.817L397.417 253.497L400.663 250.198L407.698 245.326Z" fill="black"/>
<path opacity="0.1" d="M405.321 253.926C405.321 253.926 401.747 256.255 400.068 256.255C398.388 256.255 394.493 260.257 394.493 260.257C394.493 260.257 400.014 256.683 400.449 256.797C400.884 256.91 405.321 253.926 405.321 253.926Z" fill="black"/>
<path opacity="0.1" d="M396.172 255.171C396.172 255.171 392.819 258.202 393.683 258.53C394.546 258.857 399.043 255.171 399.043 255.171H396.172Z" fill="black"/>
<path opacity="0.1" d="M411.003 244.349C411.003 244.349 408.406 247.869 409.109 247.816C409.812 247.762 411.813 245.755 411.813 245.755L411.003 244.349Z" fill="black"/>
<path opacity="0.1" d="M411.378 247.815C411.378 247.815 408.567 251.008 408.674 251.818C408.782 252.628 411.378 247.815 411.378 247.815Z" fill="black"/>
<path opacity="0.1" d="M412.087 249.412C412.087 249.412 410.193 252.794 411.003 253.497C411.813 254.2 412.087 249.412 412.087 249.412Z" fill="black"/>
<path opacity="0.1" d="M409.633 240.722C409.633 240.722 408.222 243.105 409.252 243.265C410.283 243.426 410.384 243.265 410.384 243.265L409.633 240.722Z" fill="black"/>
<path opacity="0.1" d="M410.026 232.009C409.675 233.465 409.192 234.886 408.585 236.256C408.359 235.558 408.172 234.848 408.025 234.129C408.619 233.357 409.29 232.647 410.026 232.009Z" fill="black"/>
<path opacity="0.1" d="M414.321 204.119C414.181 204.424 413.999 204.706 413.779 204.959C413.41 205.292 413.082 205.668 412.802 206.079C412.582 206.693 412.463 207.338 412.451 207.99C412.343 208.634 411.938 209.348 411.259 209.366C410.925 209.338 410.601 209.241 410.306 209.08C410.159 209.004 409.995 208.967 409.829 208.972C409.663 208.977 409.501 209.025 409.359 209.11C409.171 209.301 409.063 209.557 409.056 209.825C408.973 210.384 408.941 210.951 408.96 211.516C408.96 211.742 408.96 211.963 408.996 212.189C409.162 212.901 409.119 213.646 408.871 214.333C408.56 214.831 408.09 215.209 407.537 215.405C406.936 215.653 406.308 215.829 405.666 215.929C404.444 216.079 403.21 216.119 401.98 216.048C401.866 216.051 401.753 216.033 401.646 215.995C401.593 215.974 401.545 215.943 401.503 215.905C401.639 215.229 401.713 214.541 401.723 213.851C400.897 213.048 400.252 212.077 399.833 211.004C399.415 209.93 399.231 208.779 399.296 207.629C399.361 206.478 399.673 205.355 400.21 204.336C400.747 203.316 401.497 202.424 402.409 201.72C403.32 201.015 404.373 200.515 405.495 200.253C406.617 199.991 407.783 199.973 408.912 200.2C410.042 200.428 411.11 200.896 412.043 201.572C412.976 202.248 413.753 203.117 414.321 204.119Z" fill="black"/>
<path d="M410.961 197.312C410.223 197.235 409.526 197.628 408.799 197.788C407.304 198.116 405.774 197.437 404.237 197.443C402.916 197.518 401.631 197.901 400.485 198.563C399.558 199.001 398.712 199.593 397.983 200.314C397.251 201.046 396.825 202.03 396.792 203.065C396.893 203.658 396.875 204.266 396.738 204.852C396.584 205.147 396.4 205.426 396.19 205.686C396 205.991 395.879 206.334 395.834 206.691C395.79 207.047 395.824 207.41 395.934 207.752C396.242 208.43 396.658 209.054 397.167 209.598C398.156 210.867 398.775 212.386 399.663 213.732C400.05 214.316 400.484 214.868 400.961 215.381C401.039 215.472 401.134 215.547 401.241 215.602C401.346 215.639 401.457 215.655 401.569 215.649C403.451 215.703 405.398 215.745 407.132 215.006C407.687 214.814 408.158 214.435 408.466 213.934C408.716 213.247 408.761 212.502 408.597 211.79C408.518 210.997 408.536 210.197 408.65 209.408C408.658 209.142 408.767 208.888 408.954 208.699C409.097 208.611 409.259 208.562 409.427 208.556C409.594 208.551 409.76 208.59 409.907 208.669C410.202 208.824 410.523 208.921 410.854 208.955C411.504 208.955 411.914 208.217 412.046 207.573C411.974 206.995 412.06 206.409 412.293 205.875C412.527 205.342 412.9 204.881 413.374 204.542C413.82 203.976 414.126 203.313 414.268 202.606C414.41 201.899 414.383 201.169 414.19 200.474C413.761 199.134 412.451 197.461 410.961 197.312Z" fill="#1E1637"/>
<path opacity="0.1" d="M418.687 231.515C418.528 232.501 418.528 233.507 418.687 234.493C418.615 235.291 418.687 239.692 418.687 239.692C416.304 238.965 410.247 240.413 410.247 240.413L409.526 238.251C409.115 237.717 408.808 237.111 408.621 236.464C408.395 235.764 408.208 235.053 408.061 234.332C407.746 232.835 407.51 231.322 407.352 229.8C407.048 227.507 410.461 225.035 413.046 223.666C415.631 222.296 417.895 228.138 417.895 228.138C417.895 228.138 418.973 230.383 418.687 231.515Z" fill="black"/>
<path d="M418.687 231.104C418.529 232.09 418.529 233.096 418.687 234.082C418.615 234.874 418.687 239.275 418.687 239.275C416.304 238.554 410.247 239.996 410.247 239.996L409.526 237.834C409.113 237.301 408.806 236.695 408.621 236.047C408.395 235.349 408.208 234.64 408.061 233.921C407.747 232.424 407.51 230.911 407.352 229.389C407.048 227.09 410.461 224.624 413.046 223.249C415.631 221.873 417.895 227.721 417.895 227.721C417.895 227.721 418.973 229.949 418.687 231.104Z" fill="#4C4981"/>
<path opacity="0.2" d="M414.106 200.474C413.983 200.065 413.804 199.675 413.576 199.313C413.612 199.414 413.648 199.51 413.678 199.611C413.871 200.305 413.898 201.036 413.756 201.742C413.614 202.449 413.308 203.112 412.862 203.679C412.388 204.018 412.015 204.478 411.781 205.012C411.547 205.545 411.462 206.132 411.533 206.71C411.432 207.353 411.021 208.062 410.342 208.086C410.008 208.057 409.683 207.96 409.389 207.8C409.242 207.723 409.077 207.686 408.912 207.691C408.746 207.697 408.584 207.744 408.442 207.83C408.254 208.021 408.145 208.276 408.138 208.544C408.023 209.333 408.005 210.133 408.085 210.927C408.15 211.653 408.293 212.433 407.954 213.076C407.64 213.572 407.17 213.949 406.619 214.148C404.886 214.887 402.938 214.845 401.056 214.792C400.945 214.795 400.833 214.777 400.729 214.738C400.619 214.688 400.524 214.612 400.449 214.518C399.967 214.008 399.532 213.456 399.15 212.868C398.263 211.522 397.643 210.009 396.655 208.735C396.387 208.389 396.059 208.05 395.839 207.687V207.758C396.142 208.439 396.559 209.063 397.072 209.604C398.054 210.873 398.68 212.392 399.561 213.738C399.949 214.323 400.385 214.875 400.866 215.387C400.942 215.478 401.035 215.553 401.14 215.608C401.245 215.644 401.356 215.66 401.467 215.655C403.349 215.709 405.303 215.751 407.03 215.012C407.586 214.82 408.057 214.441 408.365 213.94C408.615 213.253 408.66 212.508 408.496 211.796C408.423 211.003 408.441 210.203 408.549 209.414C408.562 209.149 408.67 208.897 408.853 208.705C408.995 208.617 409.158 208.568 409.326 208.562C409.493 208.557 409.659 208.596 409.806 208.675C410.1 208.83 410.422 208.927 410.753 208.961C411.408 208.961 411.813 208.223 411.944 207.579C411.954 206.927 412.073 206.281 412.296 205.668C412.574 205.255 412.902 204.879 413.272 204.548C413.722 203.982 414.031 203.319 414.176 202.611C414.321 201.903 414.297 201.171 414.106 200.474Z" fill="black"/>
<path d="M472.173 202.041L467.027 212.975C467.027 212.975 466.271 215.03 465.782 215.411C465.294 215.792 463.132 222.284 463.132 222.284L457.61 230.788L457.235 231.384L455.073 230.788L453.554 225.119L453.644 223.475V223.266C453.644 223.266 457.051 219.693 457.813 219.425C457.813 219.425 458.409 219.497 459.54 216.727C460.672 213.958 461.708 213.362 461.708 213.362L462.304 211.361L468.695 201.183C468.695 201.183 474.055 193.506 475.515 196.913C476.974 200.32 472.173 202.041 472.173 202.041Z" fill="#FFD2C6"/>
<path d="M450.802 279.714C450.785 279.899 450.726 280.078 450.63 280.238C450.034 281.107 446.681 298.801 446.681 298.801C446.949 299.992 446.192 302.375 445.704 303.459C445.216 304.542 444.132 310.165 444.132 310.165C444.132 310.165 443.864 322.29 443.167 324.184C442.47 326.078 443.387 330.14 443.387 330.14C443.322 332.004 444.441 333.981 445.108 334.981L445.239 335.172C445.454 335.482 445.597 335.66 445.597 335.66C445.78 336.022 446.038 336.34 446.353 336.595L446.508 336.715C447.428 337.329 448.457 337.764 449.54 337.995H449.647C450.076 338.09 450.362 338.132 450.362 338.132L450.63 339.597L447.765 340.193L442.297 340.568C442.297 340.568 435.852 341.062 437.318 338.186C437.419 337.994 437.507 337.795 437.58 337.59C437.637 337.45 437.686 337.307 437.729 337.161C438.61 334.404 438.015 331.051 438.015 331.051L436.77 321.26C434.715 312.166 438.384 302.047 438.384 302.047C438.384 302.047 438.068 301.237 438.771 299.182C439.474 297.128 438.771 292.631 438.771 292.631C438.771 292.631 438.396 286.842 437.907 283.978C437.715 282.771 437.649 281.547 437.711 280.327C437.734 279.613 437.8 278.901 437.907 278.195L450.243 276.557C450.243 276.557 450.951 278.564 450.802 279.714Z" fill="#FFD2C6"/>
<path opacity="0.1" d="M450.63 339.609L447.765 340.205L442.297 340.58C442.297 340.58 435.852 341.074 437.318 338.198C437.419 338.006 437.507 337.806 437.58 337.602C437.637 337.462 437.686 337.318 437.729 337.173C438.845 337.21 439.948 337.431 440.993 337.828C442.827 338.537 444.209 336.691 444.209 336.691L445.102 334.987L445.233 334.743C445.448 335.053 445.591 335.232 445.591 335.232C445.807 335.65 446.119 336.011 446.502 336.286L446.347 336.601L445.484 338.424C445.484 338.424 446.591 338.537 448.104 338.781C448.397 338.857 448.708 338.818 448.973 338.673C449.239 338.529 449.439 338.288 449.534 338.001H449.641C450.07 338.096 450.356 338.138 450.356 338.138L450.63 339.609Z" fill="black"/>
<path d="M453.28 340.955C453.066 341.932 447.032 342.229 447.032 342.229C447.032 342.229 443.673 341.908 442.732 342.688C441.791 343.468 439.021 343.283 438.914 343.283C438.807 343.283 437.347 343.23 436.776 340.609C436.204 337.989 437.52 337.632 437.58 337.59C438.747 337.607 439.903 337.831 440.993 338.251C442.827 338.96 444.209 337.114 444.209 337.114L445.233 335.166C445.448 335.476 445.591 335.654 445.591 335.654C445.807 336.073 446.119 336.434 446.502 336.709L445.484 338.847C445.484 338.847 446.591 338.96 448.104 339.198C448.286 339.239 448.474 339.24 448.656 339.2C448.837 339.16 449.008 339.08 449.155 338.966C449.302 338.852 449.422 338.707 449.506 338.541C449.59 338.375 449.636 338.193 449.641 338.007C449.644 337.953 449.644 337.9 449.641 337.846C449.641 337.846 450.582 338.12 451.75 338.442C452.273 338.592 452.721 338.934 453.005 339.4C453.288 339.865 453.387 340.42 453.28 340.955Z" fill="#626696"/>
<path d="M464.651 292.613C464.508 293.477 464.359 295.716 464.359 295.716C464.865 297.592 463.567 302.047 463.567 302.047L462.917 304.59C463.203 307.836 461.131 315.775 461.131 315.775C461.131 315.775 459.743 323.136 459.022 326.31C458.591 328.075 458.722 329.93 459.397 331.616L459.451 331.747C459.451 331.807 459.481 331.867 459.493 331.926C459.514 332.013 459.542 332.099 459.576 332.182C459.737 332.619 459.978 333.023 460.285 333.373C460.403 333.516 460.532 333.65 460.672 333.772C461.351 334.374 462.129 334.853 462.971 335.19L463.334 335.333C463.711 335.472 464.095 335.592 464.484 335.69H464.615L464.323 337.393L460.499 336.411L455.377 334.749L452.893 333.355C452.893 333.355 452.893 333.219 452.971 332.956C452.973 332.941 452.973 332.925 452.971 332.909C452.971 332.796 453.018 332.665 453.048 332.51C453.441 330.276 454.418 324.029 453.929 319.407C453.334 313.708 455.716 305.841 456.27 303.971C456.615 302.898 456.762 301.772 456.705 300.647C455.764 299.278 455.55 293.793 455.55 293.793C455.55 293.793 453.816 290.255 452.387 286.503C451.91 285.278 451.565 284.007 451.356 282.709C451.187 281.796 451.117 280.868 451.148 279.94C451.148 279.94 462.768 269.333 464.043 279.6C464.085 279.952 464.126 280.279 464.168 280.607C465.3 290.046 464.788 291.774 464.651 292.613Z" fill="#FFD2C6"/>
<path opacity="0.1" d="M464.651 335.738L464.359 337.441L460.535 336.458L455.413 334.797L452.893 333.355C452.893 333.355 452.893 333.219 452.971 332.956C452.973 332.941 452.973 332.925 452.971 332.909C452.971 332.796 453.018 332.665 453.048 332.51H453.405C454.133 332.439 454.867 332.539 455.55 332.802C456.383 333.111 457.479 333.469 457.7 333.32C458.087 333.154 458.507 333.081 458.927 333.105L459.457 331.914L459.54 331.736C459.7 332.173 459.941 332.577 460.249 332.927C460.377 333.076 460.514 333.218 460.66 333.35V333.76L460.63 334.356C461.202 334.72 461.822 335.005 462.471 335.202C462.639 335.244 462.815 335.244 462.983 335.202L463.346 335.345C463.723 335.484 464.106 335.604 464.496 335.702L464.651 335.738Z" fill="black"/>
<path d="M462.733 339.389C461.667 339.085 459.094 338.591 458.677 338.972C458.26 339.353 454.692 338.972 454.692 338.972C454.318 338.966 453.952 338.864 453.63 338.675C453.307 338.486 453.039 338.217 452.851 337.894C452.107 336.738 452.708 333.004 452.708 333.004H452.971L453.411 332.957C454.139 332.886 454.872 332.984 455.556 333.242C456.389 333.558 457.485 333.915 457.706 333.767C458.092 333.597 458.512 333.522 458.933 333.546L459.528 332.206C459.69 332.643 459.93 333.047 460.237 333.397C460.363 333.546 460.501 333.686 460.648 333.814L460.594 334.809C461.167 335.173 461.786 335.46 462.435 335.66C462.592 335.72 462.764 335.725 462.924 335.674C463.084 335.623 463.223 335.52 463.316 335.381C463.344 335.334 463.366 335.284 463.382 335.232C463.864 335.459 464.372 335.627 464.895 335.732C465.564 335.662 466.236 335.839 466.785 336.229C467.333 336.62 467.72 337.197 467.873 337.852C468.439 339.514 463.799 339.692 462.733 339.389Z" fill="#626696"/>
<path opacity="0.1" d="M450.802 279.714L450.141 279.916C449.622 280.074 449.09 280.185 448.551 280.25C445.132 280.732 439.504 280.44 437.717 280.327C437.74 279.613 437.806 278.901 437.913 278.195L450.249 276.557C450.249 276.557 450.951 278.564 450.802 279.714Z" fill="black"/>
<path d="M461.565 276.718C461.565 276.718 457.039 277.421 453.352 278.225C452.125 278.493 450.969 278.779 450.141 279.047C449.622 279.204 449.09 279.317 448.551 279.386C444.447 279.982 437.157 279.428 437.157 279.428C435.156 272.936 439.587 264.759 439.587 264.759C439.486 264.11 440.51 262.115 440.51 262.115V262.049L441.142 259.733H457.968L458.176 260.727L458.605 262.752L461.25 275.3L461.565 276.718Z" fill="#626696"/>
<path opacity="0.1" d="M464.174 280.655L464.073 280.696L462.101 281.572C459.969 282.554 453.59 282.763 451.38 282.763C451.211 281.85 451.141 280.921 451.172 279.994C451.172 279.994 462.792 269.387 464.067 279.654C464.091 279.999 464.132 280.351 464.174 280.655Z" fill="black"/>
<path d="M464.484 279.648L464.073 279.833L462.101 280.708C459.933 281.709 453.346 281.899 451.237 281.899H450.683C449.713 281.869 448.736 280.958 448.736 280.708C448.736 280.577 448.634 279.934 448.551 279.386C448.474 278.945 448.414 278.564 448.414 278.564C446.153 277.591 443.963 276.458 441.862 275.175C440.212 274.05 440.629 266.051 440.945 262.031C441.058 260.644 441.159 259.733 441.159 259.733L458.194 260.727L460.577 260.864L461.941 261.168L462.304 261.245C462.304 261.245 463.287 268.392 463.769 268.988C464.252 269.583 463.936 271.584 463.876 272.728C463.876 273.218 463.822 273.708 463.716 274.187C463.716 274.187 464.418 276.188 464.258 277.307C464.184 278.095 464.261 278.889 464.484 279.648Z" fill="#626696"/>
<path d="M446.246 220.336C450.101 220.336 453.227 217.211 453.227 213.356C453.227 209.501 450.101 206.376 446.246 206.376C442.391 206.376 439.265 209.501 439.265 213.356C439.265 217.211 442.391 220.336 446.246 220.336Z" fill="#FFD2C6"/>
<path d="M442.839 216.263C442.839 216.263 443.322 222.873 441.969 224.392C440.424 225.939 438.798 227.402 437.097 228.775L438.181 233.266L444.298 233.969L451.446 226.34L449.82 224.368C449.82 224.368 448.575 220.146 449.599 218.037C450.624 215.929 442.839 216.263 442.839 216.263Z" fill="#FFD2C6"/>
<path opacity="0.1" d="M457.61 230.788L457.235 231.384L455.073 230.788L453.554 225.119L453.644 223.475L454.09 222.832C454.09 222.832 456.473 222.885 456.372 225.053C456.27 226.947 457.354 230.068 457.61 230.788Z" fill="black"/>
<path opacity="0.1" d="M462.316 262.115C462.316 262.115 460.594 262.496 458.623 262.752C456.651 263.008 454.376 263.145 453.441 262.597C451.875 261.668 443.387 261.936 440.933 262.031H440.516L441.147 259.715H457.974L458.182 260.709L460.565 260.846L461.929 261.15C462.179 261.734 462.316 262.115 462.316 262.115Z" fill="black"/>
<path d="M453.661 223.255C453.661 223.255 456.044 223.308 455.937 225.476C455.83 227.644 457.235 231.372 457.235 231.372L456.693 232.617C456.693 232.617 455.937 235.648 456.532 236.405C457.128 237.161 459.29 237.161 458.045 243.385C458.045 243.385 457.777 248.042 458.426 249.555C459.076 251.067 459.076 254.694 460.047 256.213C460.933 257.83 461.694 259.512 462.322 261.245C462.322 261.245 455.287 262.812 453.447 261.734C451.607 260.656 440.296 261.192 440.296 261.192C440.296 261.192 440.349 259.298 440.296 259.078C440.243 258.842 440.24 258.598 440.286 258.362C440.332 258.125 440.427 257.9 440.564 257.702C440.945 257.184 441.541 256.32 441.213 255.564C440.885 254.807 442.023 253.688 441.427 252.514C440.832 251.341 440.111 251.109 440.236 250.466C440.268 250.097 440.226 249.725 440.111 249.374C439.996 249.022 439.812 248.696 439.569 248.417C439.14 247.875 436.216 242.158 436.216 242.158L435.727 239.49C435.727 239.49 431.963 236.732 432.035 235.434C432.106 234.135 433.458 232.331 433.458 232.331L437.079 228.758C437.079 228.758 439.087 230.919 441.034 230.163C442.982 229.407 447.169 225.78 447.169 225.78C447.169 225.78 448.664 224.97 448.771 224.374C448.879 223.779 449.802 224.321 449.802 224.321C449.802 224.321 451.154 223.576 451.422 223.838C451.881 224.078 452.376 224.241 452.887 224.321L453.661 223.255Z" fill="#FFCDE5"/>
<path d="M433.202 234.529L432.052 235.434C431.179 237.282 430.687 239.287 430.605 241.33C430.3 244.401 429.813 247.452 429.146 250.466L426.87 254.533C426.87 254.533 423.136 262.377 422.648 264.461C422.159 266.546 419.943 270.066 419.943 270.066C419.943 270.066 412.421 276.825 417.668 278.046C422.916 279.267 423.082 272.686 423.082 272.686C423.082 272.686 424.274 271.334 424.506 270.411C424.738 269.488 431.361 257.72 431.361 257.72C431.361 257.72 433.69 254.551 433.202 252.872C433.202 252.872 436.234 245.725 436.234 243.938C436.177 242.444 436.014 240.955 435.745 239.484L436.234 235.749L433.202 234.529Z" fill="#FFD2C6"/>
<path opacity="0.1" d="M448.789 249.447C448.789 249.447 443.488 252.223 442.458 252.371C441.427 252.52 446.949 251.776 446.949 251.776L448.789 249.447Z" fill="black"/>
<path opacity="0.1" d="M453.114 251.609C453.114 251.609 446.079 253.991 442.988 253.563C442.988 253.551 450.683 255.022 453.114 251.609Z" fill="black"/>
<path opacity="0.1" d="M453.554 252.389C453.554 252.389 447.217 256.374 443.488 255.725C443.488 255.725 452.202 257.458 453.554 256.535L449.659 255.457C449.659 255.457 453.983 253.164 453.554 252.389Z" fill="black"/>
<path opacity="0.1" d="M446.258 201.07C445.344 200.845 444.393 200.819 443.469 200.992C442.544 201.166 441.667 201.536 440.897 202.076C439.813 202.928 439.11 204.232 437.872 204.87C437.228 205.144 436.568 205.377 435.894 205.566C434.708 206.052 433.719 206.921 433.088 208.036C432.456 209.151 432.217 210.446 432.41 211.713C432.6 212.785 433.101 213.773 433.351 214.833C433.792 216.721 433.398 218.699 432.922 220.58C431.589 225.799 429.566 230.816 426.906 235.499C426.697 235.79 426.592 236.142 426.608 236.5C426.675 236.74 426.803 236.959 426.978 237.137C429.479 240.025 433.53 241.02 437.371 241.151C438.782 241.29 440.204 241.054 441.493 240.466C442.289 240.008 442.975 239.38 443.5 238.626C444.829 236.807 445.49 234.586 445.37 232.337C445.269 230.52 444.662 228.686 445.12 226.929C445.166 226.684 445.277 226.455 445.442 226.268C445.853 225.845 446.538 225.958 447.122 225.887C448.712 225.702 449.736 224.029 449.927 222.439C450.118 220.848 449.718 219.252 449.707 217.674C449.7 215.561 450.361 213.5 451.595 211.784C452.125 211.057 452.786 210.343 452.977 209.432C453.203 208.288 452.542 207.448 451.97 206.549C451.082 205.144 450.648 203.506 449.296 202.434C448.403 201.749 447.363 201.281 446.258 201.07Z" fill="black"/>
<path d="M445.823 200.635C444.915 200.414 443.97 200.389 443.052 200.562C442.133 200.736 441.263 201.104 440.498 201.642C439.414 202.499 438.711 203.804 437.467 204.441C436.822 204.711 436.162 204.942 435.489 205.132C434.305 205.616 433.318 206.484 432.687 207.597C432.055 208.709 431.815 210.001 432.005 211.266C432.195 212.338 432.696 213.327 432.946 214.387C433.387 216.275 432.999 218.252 432.517 220.134C431.184 225.342 429.163 230.349 426.507 235.023C426.293 235.311 426.188 235.665 426.209 236.023C426.271 236.265 426.396 236.485 426.573 236.661C429.074 239.555 433.125 240.544 436.966 240.675C438.376 240.814 439.797 240.58 441.088 239.996C441.883 239.534 442.568 238.904 443.095 238.15C444.422 236.33 445.08 234.109 444.959 231.86C444.852 230.074 444.245 228.21 444.703 226.453C444.754 226.209 444.864 225.982 445.025 225.792C445.442 225.369 446.121 225.482 446.711 225.416C448.295 225.232 449.319 223.552 449.51 221.968C449.701 220.384 449.302 218.782 449.296 217.204C449.287 215.092 449.948 213.032 451.184 211.32C451.708 210.587 452.375 209.872 452.566 208.937C452.786 207.794 452.125 206.96 451.553 206.055C450.665 204.655 450.231 203.012 448.879 201.94C447.976 201.273 446.929 200.826 445.823 200.635Z" fill="#985C7E"/>
<path opacity="0.1" d="M443.488 268.297C443.488 268.297 444.876 274.794 447.187 276.557L443.488 268.297Z" fill="black"/>
<g opacity="0.1">
<rect width="26.3987" height="33.6406" fill="black" fill-opacity="0" transform="translate(426.197 207.097)"/>
<path opacity="0.1" d="M432.416 212.731C432.344 212.481 432.261 212.225 432.172 211.975C432.267 212.231 432.326 212.457 432.416 212.731Z" fill="black"/>
<path opacity="0.1" d="M452.161 207.097C452.185 207.295 452.185 207.495 452.161 207.693C451.982 208.604 451.309 209.318 450.779 210.045C449.546 211.761 448.886 213.822 448.891 215.935C448.891 217.537 449.296 219.133 449.105 220.7C448.914 222.266 447.914 223.963 446.306 224.142C445.71 224.213 445.037 224.1 444.626 224.523C444.464 224.713 444.351 224.94 444.298 225.184C443.84 226.941 444.453 228.758 444.554 230.592C444.665 232.842 443.996 235.061 442.66 236.875C442.137 237.63 441.451 238.259 440.653 238.715C439.366 239.304 437.946 239.54 436.537 239.4C432.779 239.275 428.794 238.304 426.269 235.523C426.202 235.689 426.181 235.87 426.209 236.047C426.271 236.289 426.396 236.509 426.573 236.684C429.074 239.579 433.125 240.567 436.966 240.698C438.376 240.838 439.797 240.604 441.088 240.02C441.883 239.557 442.568 238.927 443.095 238.173C444.422 236.354 445.08 234.133 444.959 231.884C444.852 230.098 444.245 228.233 444.703 226.477C444.754 226.233 444.864 226.006 445.025 225.815C445.442 225.393 446.121 225.506 446.711 225.44C448.295 225.256 449.319 223.576 449.51 221.992C449.701 220.408 449.302 218.806 449.296 217.228C449.287 215.116 449.948 213.056 451.184 211.343C451.708 210.611 452.375 209.896 452.566 208.961C452.664 208.311 452.52 207.647 452.161 207.097Z" fill="black"/>
</g>
<path opacity="0.1" d="M142.939 361.115C149.899 361.115 155.542 360.544 155.542 359.84C155.542 359.136 149.899 358.566 142.939 358.566C135.978 358.566 130.335 359.136 130.335 359.84C130.335 360.544 135.978 361.115 142.939 361.115Z" fill="#6C63FF"/>
<path d="M147.346 338.769C147.346 338.769 130.907 347.262 139.401 357.232C139.64 357.853 140.069 358.383 140.628 358.745C141.186 359.108 141.845 359.285 142.51 359.251C142.51 359.251 142.045 358.411 143.814 357.738C144.445 357.495 145.045 357.18 145.601 356.797C146.349 356.28 146.907 355.534 147.191 354.671C147.191 354.671 150.557 350.174 147.948 341.854C147.948 341.854 148.287 339.472 147.99 339.121L145.994 341.854C145.994 341.854 148.061 343.242 148.299 345.279C148.299 345.279 146.149 341.86 145.679 342.253C145.583 342.331 144.69 343.748 144.69 343.748C144.69 343.748 148.264 346.178 148.532 349.329C148.532 349.329 146.518 344.915 144.362 344.284L143.135 346.506C143.135 346.506 147.043 348.888 147.483 352.461C147.483 352.461 145.214 347.923 142.897 347.012L141.986 349.358C141.986 349.358 145.75 351.741 146.096 354.718C146.096 354.718 142.945 349.739 141.813 349.9C141.813 349.9 141.104 352.104 141.217 352.783C141.217 352.783 143.886 354.569 143.933 356.314C143.933 356.314 141.474 353.206 141.092 353.414C141.092 353.414 140.937 356.535 141.688 358.179C140.914 356.713 140.538 355.07 140.598 353.414C139.836 354.087 139.289 354.969 139.026 355.951C139.026 355.951 138.317 354.23 140.646 352.658C140.646 352.658 140.866 350.228 141.134 349.93C141.134 349.93 138.615 351.157 137.56 352.67C137.56 352.67 137.953 350.418 141.372 349.299L142.242 346.917C142.242 346.917 138.823 348.364 137.763 349.638C137.763 349.638 138.525 347.405 142.528 346.333L143.719 344.141C143.719 344.141 140.681 345.166 139.198 346.333C139.198 346.333 140.348 344.409 144.082 343.528L145.047 342.152C145.047 342.152 142.838 342.944 142.224 343.224C141.611 343.504 141.485 343.367 141.485 343.367C142.611 342.414 143.981 341.796 145.44 341.58C145.44 341.58 147.495 338.918 147.346 338.769Z" fill="#6C63FF"/>
<path d="M163.541 353.884C165.263 354.903 167.955 355.564 171.344 353.378L171.308 358.208C171.552 361.526 175.644 373.592 175.644 373.592L178.533 383.525C180.605 390.54 181.676 397.812 181.714 405.126C181.64 407.429 181.952 409.728 182.637 411.928C184.173 416.097 182.041 421.457 181.1 423.44C179.385 424.035 177.616 424.482 176.335 424.78C176.189 424.814 176.046 424.857 175.906 424.911V424.881C175.906 424.881 171.57 426.602 169.64 426.364C168.205 426.185 167.306 427.978 168.449 429.294C167.514 429.582 166.538 429.711 165.56 429.675C163.631 429.437 162.672 432.754 166.281 433.701C169.891 434.648 190.38 433.701 190.38 433.701C190.957 433.413 191.421 432.941 191.701 432.36C191.98 431.779 192.058 431.122 191.923 430.491C193.495 430.432 194.478 430.384 194.478 430.384C194.478 430.384 198.093 428.728 194.478 424.232L194.287 424.381L193.513 422.106V419.027C193.513 419.027 198.093 396.991 196.646 394.418C195.198 391.845 194.478 378.564 194.478 378.564L194.96 364.128C196.265 361.43 196.938 357.208 197.277 353.902C197.768 352.325 198.078 350.696 198.2 349.049C198.254 348.274 198.302 347.458 198.331 346.613C198.35 344.76 198.054 342.917 197.456 341.163C199.085 338.734 200.91 336.442 202.912 334.308C203.744 333.535 204.376 332.571 204.754 331.499C205.131 330.428 205.243 329.281 205.08 328.156L203.888 320.11L200.994 306.413C201.357 302.601 200.565 300.409 199.683 299.171C199.892 297.944 200.088 296.711 200.237 295.478C200.877 290.109 200.591 284.67 199.392 279.398C198.975 277.558 198.403 275.67 197.116 274.276C195.651 272.698 193.281 271.733 192.738 269.667C192.655 269.143 192.544 268.624 192.405 268.112C191.875 266.754 190.201 266.266 188.736 266.087C186.127 265.772 182.357 265.527 179.849 266.552C178.104 267.272 175.68 269.238 174.733 271.352C174.162 272.232 173.949 273.298 174.137 274.33C174.229 274.683 174.369 275.022 174.554 275.336C174.167 276.35 173.966 277.425 173.959 278.511C173.968 280.365 174.536 282.174 175.587 283.701C176.639 285.228 178.126 286.404 179.855 287.075C179.909 287.253 179.962 287.432 180.01 287.611C180.119 288.033 180.196 288.463 180.242 288.897C180.201 289.737 180.147 290.577 180.105 291.41C180.083 291.525 180.053 291.639 180.016 291.75C177.942 292.668 175.92 293.7 173.959 294.841C175.406 296.967 173.72 305.96 173.72 305.96C170.105 308.092 166.49 313.535 170.343 319.211C174.197 324.887 172.029 330.973 172.029 330.973L171.433 340.228L171.314 342.075H171.362L171.314 342.777H171.415V343.534C169.718 344.129 167.246 345.404 165.775 347.703C165.076 348.843 164.226 349.885 163.249 350.799C163.011 350.992 162.823 351.241 162.704 351.524C162.585 351.807 162.538 352.115 162.567 352.42C162.595 352.726 162.7 353.02 162.87 353.275C163.04 353.531 163.27 353.74 163.541 353.884ZM192.637 329.3C192.492 327.7 192.789 326.091 193.495 324.649C194.061 324.649 194.633 324.649 195.198 324.649C195.258 325.048 195.323 325.429 195.407 325.774C195.895 327.882 193.942 328.877 192.637 329.3Z" fill="url(#paint0_linear)"/>
<path d="M193.114 421.022L194.043 423.803L191.041 426.817L181.07 429.133L173.881 428.437L174.346 425.888C174.482 425.34 174.768 424.84 175.17 424.444C175.573 424.048 176.077 423.77 176.627 423.642C179.605 422.945 185.216 421.367 186.401 419.164L193.114 421.022Z" fill="#DB8B8B"/>
<path opacity="0.1" d="M193.114 421.022L194.043 423.803L191.041 426.817L181.07 429.133L173.881 428.437L174.346 425.888C174.482 425.34 174.768 424.84 175.17 424.444C175.573 424.048 176.077 423.77 176.627 423.642C179.605 422.945 185.216 421.367 186.401 419.164L193.114 421.022Z" fill="black"/>
<path d="M176.186 427.746L177.58 425.888L176.186 423.744C176.186 423.744 172.017 425.423 170.159 425.191C168.3 424.959 167.377 428.21 170.855 429.133C174.334 430.056 194.043 429.133 194.043 429.133C194.043 429.133 197.521 427.513 194.043 423.106L191.041 425.423C191.041 425.423 185.937 428.21 183.387 427.746H176.186Z" fill="#2E3037"/>
<path d="M169.926 431.688L177.115 432.379L187.086 430.062L190.1 427.049L189.856 426.31L189.51 425.274L189.177 424.268L182.452 422.41C182.111 422.967 181.644 423.436 181.088 423.779C178.902 425.268 174.977 426.346 172.678 426.888L172.386 426.972C171.939 427.118 171.532 427.364 171.195 427.692C170.791 428.087 170.504 428.586 170.367 429.133L169.926 431.688Z" fill="#DB8B8B"/>
<path opacity="0.1" d="M169.926 431.688L177.115 432.379L187.086 430.062L190.1 427.049L189.856 426.31L187.086 428.437C187.086 428.437 181.988 431.224 179.432 430.759H172.249L173.637 428.901L172.386 426.971C171.939 427.118 171.532 427.364 171.195 427.692C170.791 428.087 170.504 428.586 170.367 429.133L169.926 431.688Z" fill="black"/>
<path d="M172.249 430.992L173.637 429.133L172.249 426.989C172.249 426.989 168.08 428.669 166.216 428.437C164.351 428.204 163.434 431.456 166.912 432.379C170.391 433.302 190.1 432.379 190.1 432.379C190.1 432.379 193.578 430.759 190.1 426.352L187.086 428.645C187.086 428.645 181.988 431.432 179.432 430.968L172.249 430.992Z" fill="#2E3037"/>
<path d="M178.045 296.514C178.045 296.514 189.177 297.67 187.574 293.036C187.123 291.72 187.004 290.312 187.229 288.939C187.52 287.237 188.194 285.624 189.201 284.222L178.765 285.848C179.388 286.893 179.863 288.019 180.177 289.195C181.398 294.114 178.045 296.514 178.045 296.514Z" fill="#DB8B8B"/>
<path d="M197.057 349.376C197.057 349.376 196.824 359.346 194.507 364.217L194.019 378.356C194.019 378.356 194.716 391.339 196.104 393.894C197.492 396.449 193.09 418.008 193.09 418.008V421.713C193.09 421.713 185.674 424.5 183.56 421.254L185.68 393.662L184.769 355.391L197.057 349.376Z" fill="#474463"/>
<path opacity="0.1" d="M197.057 349.376C197.057 349.376 196.824 359.346 194.507 364.217L194.019 378.356C194.019 378.356 194.716 391.339 196.104 393.894C197.492 396.449 193.09 418.008 193.09 418.008V421.713C193.09 421.713 185.674 424.5 183.56 421.254L185.68 393.662L184.769 355.391L197.057 349.376Z" fill="black"/>
<path d="M201.697 317.377L203.084 321.087L204.246 328.972C204.403 330.07 204.296 331.19 203.934 332.238C203.571 333.287 202.963 334.233 202.161 334.999C199.38 337.781 195.669 343.581 195.669 343.581L191.261 330.378C191.261 330.378 195.669 329.681 194.972 326.667C194.275 323.654 194.507 318.085 194.507 318.085L201.697 317.377Z" fill="#FC6681"/>
<path opacity="0.05" d="M201.697 317.377L203.084 321.087L204.246 328.972C204.403 330.07 204.296 331.19 203.934 332.238C203.571 333.287 202.963 334.233 202.161 334.999C199.38 337.781 195.669 343.581 195.669 343.581L191.261 330.378C191.261 330.378 195.669 329.681 194.972 326.667C194.275 323.654 194.507 318.085 194.507 318.085L201.697 317.377Z" fill="black"/>
<path opacity="0.1" d="M181.088 423.779C184.066 428.46 188.688 425.804 189.51 425.274L189.177 424.268L182.452 422.41C182.111 422.967 181.644 423.436 181.088 423.779Z" fill="black"/>
<path d="M171.785 358.417C172.017 361.663 175.954 373.49 175.954 373.49L178.735 383.222C180.732 390.101 181.76 397.225 181.791 404.388C181.732 406.644 182.04 408.895 182.702 411.052C184.561 416.15 180.85 423.106 180.85 423.106C184.096 428.901 189.659 424.964 189.659 424.964V421.254C189.659 421.254 194.067 401.083 192.905 397.14C191.744 393.197 191.285 382.531 191.285 382.531V363.288C194.99 359.579 197.239 354.663 197.623 349.436C197.682 348.679 197.724 347.881 197.754 347.053C197.944 341.818 194.365 335.69 192.989 333.499C192.655 332.974 192.447 332.677 192.447 332.677L171.945 340.8H171.898V341.592V343.349L171.785 358.417Z" fill="#474463"/>
<path opacity="0.1" d="M178.741 285.848C179.364 286.893 179.839 288.019 180.153 289.195C181.285 289.628 182.494 289.829 183.705 289.785C184.917 289.741 186.107 289.453 187.205 288.939C187.496 287.237 188.17 285.624 189.177 284.222L178.741 285.848Z" fill="black"/>
<path d="M183.375 289.326C188.369 289.326 192.417 285.278 192.417 280.285C192.417 275.292 188.369 271.245 183.375 271.245C178.382 271.245 174.334 275.292 174.334 280.285C174.334 285.278 178.382 289.326 183.375 289.326Z" fill="#DB8B8B"/>
<path opacity="0.1" d="M171.785 343.349H171.88C181.606 345.344 193.811 335.214 193.811 335.214C193.484 334.661 193.202 334.083 192.965 333.487C192.631 332.963 192.423 332.665 192.423 332.665L171.945 340.8L171.892 341.61L171.785 343.349Z" fill="black"/>
<path d="M174.364 296.282C174.364 296.282 187.348 288.397 191.523 291.643L197.319 299.063C197.319 299.063 201.03 300.219 200.333 307.639L203.114 321.087L194.776 323.177C194.776 323.177 189.85 327.811 193.811 334.547C193.811 334.547 181.523 344.749 171.773 342.664L172.464 331.765C172.464 331.765 174.554 325.738 170.844 320.176C167.133 314.613 170.611 309.277 174.09 307.187C174.102 307.151 175.728 298.366 174.364 296.282Z" fill="#FC6681"/>
<path d="M173.637 343.581C173.637 343.581 168.771 344.504 166.448 348.215C165.781 349.331 164.966 350.35 164.024 351.246C163.812 351.439 163.648 351.678 163.545 351.946C163.442 352.213 163.402 352.501 163.43 352.786C163.458 353.071 163.552 353.346 163.705 353.588C163.857 353.831 164.064 354.034 164.31 354.182C166.15 355.284 169.152 355.969 172.94 352.854C179.432 347.518 173.637 343.581 173.637 343.581Z" fill="#DB8B8B"/>
<path opacity="0.1" d="M180.826 300.683C180.826 300.683 185.466 300.219 186.621 312.279C187.777 324.339 189.635 327.12 189.635 327.12C189.635 327.12 190.797 333.379 188.015 337.09C185.234 340.8 179.897 348.679 179.897 348.679C179.897 348.679 174.102 350.305 172.94 344.51L180.129 331.063C180.129 331.063 181.291 326.429 178.509 323.183C175.728 319.938 173.637 298.366 180.826 300.683Z" fill="black"/>
<path d="M180.362 300.004C180.362 300.004 185.001 299.54 186.157 311.594C187.312 323.648 189.177 326.435 189.177 326.435C189.177 326.435 190.332 332.695 187.551 336.405C184.769 340.115 179.432 347.994 179.432 347.994C179.432 347.994 173.637 349.62 172.476 343.826L179.665 330.378C179.665 330.378 180.826 325.738 178.045 322.493C175.263 319.247 173.172 297.67 180.362 300.004Z" fill="#FC6681"/>
<path opacity="0.1" d="M176.538 308.682C176.538 308.682 176.073 315.87 178.158 319.813C180.242 323.755 180.248 328.853 178.158 331.64" fill="black"/>
<path opacity="0.1" d="M175.376 299.873C175.376 299.873 177.235 298.021 182.565 297.789C187.896 297.557 190.219 295.931 190.219 295.931" fill="black"/>
<path opacity="0.1" d="M188.277 268.594C189.683 268.767 191.297 269.25 191.803 270.578C191.937 271.08 192.045 271.589 192.125 272.102C192.649 274.127 194.93 275.08 196.336 276.623C197.581 277.986 198.123 279.839 198.528 281.637C199.682 286.805 199.958 292.13 199.344 297.39C198.891 301.237 197.968 305.025 197.706 308.884C197.444 312.743 197.92 316.811 200.035 320.057C200.94 321.45 202.137 322.677 202.781 324.226C201.452 325.304 199.618 325.458 197.908 325.518C195.923 325.581 193.938 325.581 191.952 325.518C190.901 325.562 189.856 325.345 188.909 324.887C188.239 324.46 187.689 323.87 187.312 323.171C186.175 321.236 185.883 318.913 185.931 316.662C185.978 314.411 186.336 312.183 186.377 309.938C186.377 308.711 186.306 307.413 185.603 306.412C185.025 305.744 184.371 305.144 183.655 304.626C181.178 302.428 180.326 298.896 180.242 295.585C180.159 292.274 180.701 288.951 180.421 285.645C180.314 284.353 179.825 282.798 178.557 282.548C178.156 282.526 177.758 282.475 177.366 282.394C176.341 282 176.442 280.559 176.174 279.505C175.847 278.314 174.84 277.409 174.554 276.212C173.887 273.407 177.455 270.059 179.796 269.065C182.136 268.07 185.764 268.285 188.277 268.594Z" fill="black"/>
<path d="M188.51 268.13C189.915 268.309 191.523 268.791 192.036 270.113C192.17 270.617 192.278 271.128 192.357 271.644C192.881 273.669 195.163 274.621 196.568 276.158C197.813 277.522 198.355 279.374 198.76 281.173C199.915 286.34 200.191 291.666 199.576 296.925C199.124 300.772 198.2 304.56 197.938 308.419C197.676 312.279 198.153 316.346 200.267 319.592C201.172 320.986 202.37 322.213 203.013 323.761C201.685 324.839 199.85 324.994 198.141 325.053C196.155 325.117 194.16 325.117 192.155 325.053C191.104 325.097 190.058 324.88 189.111 324.422C188.443 323.997 187.894 323.408 187.515 322.713C186.371 320.771 186.085 318.449 186.133 316.197C186.181 313.946 186.538 311.719 186.58 309.474C186.58 308.253 186.508 306.948 185.805 305.948C185.226 305.28 184.573 304.681 183.858 304.161C181.38 301.964 180.522 298.438 180.439 295.121C180.356 291.803 180.904 288.486 180.624 285.181C180.516 283.888 180.028 282.334 178.759 282.084C178.359 282.062 177.961 282.01 177.568 281.929C176.544 281.536 176.645 280.095 176.377 279.04C176.049 277.849 175.043 276.944 174.757 275.747C174.09 272.948 177.657 269.595 179.998 268.6C182.339 267.606 185.996 267.844 188.51 268.13Z" fill="#472727"/>
<path opacity="0.1" d="M638.47 476.492C646.365 476.492 652.765 475.612 652.765 474.527C652.765 473.441 646.365 472.562 638.47 472.562C630.575 472.562 624.175 473.441 624.175 474.527C624.175 475.612 630.575 476.492 638.47 476.492Z" fill="#6C63FF"/>
<path opacity="0.1" d="M583.709 482.049C591.604 482.049 598.004 481.169 598.004 480.083C598.004 478.998 591.604 478.118 583.709 478.118C575.814 478.118 569.414 478.998 569.414 480.083C569.414 481.169 575.814 482.049 583.709 482.049Z" fill="#6C63FF"/>
<path opacity="0.1" d="M519.209 474.533C527.104 474.533 533.504 473.653 533.504 472.568C533.504 471.482 527.104 470.602 519.209 470.602C511.315 470.602 504.914 471.482 504.914 472.568C504.914 473.653 511.315 474.533 519.209 474.533Z" fill="#6C63FF"/>
<path opacity="0.1" d="M605.628 497.283C611.24 497.283 615.789 496.659 615.789 495.89C615.789 495.12 611.24 494.496 605.628 494.496C600.016 494.496 595.466 495.12 595.466 495.89C595.466 496.659 600.016 497.283 605.628 497.283Z" fill="#6C63FF"/>
<path opacity="0.1" d="M548.794 495.884C554.406 495.884 558.955 495.26 558.955 494.49C558.955 493.72 554.406 493.096 548.794 493.096C543.182 493.096 538.633 493.72 538.633 494.49C538.633 495.26 543.182 495.884 548.794 495.884Z" fill="#6C63FF"/>
<path d="M583.405 479.637C583.405 479.637 603.454 413.923 580.266 387.599C562.922 367.91 543.237 370.262 534.404 372.71C532.122 373.319 529.999 374.416 528.183 375.925C526.367 377.435 524.9 379.321 523.885 381.453C520.806 388.099 521.36 398.897 543.123 411.493C579.557 432.582 581.839 461.52 581.839 461.52L583.405 479.637Z" fill="#6C63FF"/>
<path d="M537.554 382.019C537.554 382.019 596.658 400.481 583.417 479.637" stroke="#565987" stroke-miterlimit="10"/>
<path d="M572.077 388.647C572.077 388.647 563.934 394.126 566.525 402.345" stroke="#565987" stroke-miterlimit="10"/>
<path d="M543.481 393.507C543.481 393.507 548.46 388.445 554.512 391.238" stroke="#565987" stroke-miterlimit="10"/>
<path d="M566.877 418.973C566.877 418.973 575.609 414.542 577.866 420.093" stroke="#565987" stroke-miterlimit="10"/>
<path d="M588.462 428.216C588.462 428.216 581.91 427.692 581.785 430.831" stroke="#565987" stroke-miterlimit="10"/>
<path d="M584.215 480.161C584.215 480.161 560.736 432.397 554.285 433.445C551.224 433.94 549.812 436.953 549.169 439.996C548.378 443.91 548.825 447.974 550.45 451.622C553.773 459.251 562.707 473.765 584.215 480.161Z" fill="#6C63FF"/>
<path d="M554.458 442.51C554.458 442.51 579.105 478.243 583.87 479.815" stroke="#565987" stroke-miterlimit="10"/>
<path d="M552.189 448.09H557.943" stroke="#565987" stroke-miterlimit="10"/>
<path d="M559.08 461.163L568.098 461.55" stroke="#565987" stroke-miterlimit="10"/>
<path d="M564.566 450.704L563.589 455.403" stroke="#565987" stroke-miterlimit="10"/>
<path d="M574.155 464.998L573.982 469.268" stroke="#565987" stroke-miterlimit="10"/>
<path d="M583.518 480.161C583.518 480.161 606.998 432.397 613.448 433.445C616.516 433.94 617.927 436.953 618.565 439.996C619.356 443.91 618.908 447.974 617.284 451.622C613.931 459.251 604.996 473.765 583.518 480.161Z" fill="#6C63FF"/>
<path d="M613.276 442.51C613.276 442.51 588.629 478.243 583.87 479.815" stroke="#565987" stroke-miterlimit="10"/>
<path d="M615.539 448.09H609.785" stroke="#565987" stroke-miterlimit="10"/>
<path d="M608.648 461.163L599.63 461.55" stroke="#565987" stroke-miterlimit="10"/>
<path d="M603.162 450.704L604.139 455.403" stroke="#565987" stroke-miterlimit="10"/>
<path d="M593.572 464.998L593.745 469.268" stroke="#565987" stroke-miterlimit="10"/>
<path d="M543.201 491.316C542.561 490.794 542.096 490.09 541.867 489.297C541.762 488.899 541.798 488.477 541.969 488.103C542.139 487.729 542.433 487.425 542.802 487.242C543.66 486.915 544.589 487.51 545.268 488.112C545.947 488.713 546.757 489.398 547.65 489.273C547.183 488.848 546.834 488.309 546.635 487.709C546.437 487.109 546.397 486.468 546.519 485.848C546.56 485.594 546.669 485.356 546.834 485.158C547.311 484.645 548.174 484.866 548.746 485.265C550.533 486.539 551.063 489.005 551.075 491.22C551.164 490.405 551.164 489.582 551.075 488.767C551.041 488.358 551.107 487.946 551.268 487.568C551.428 487.19 551.679 486.858 551.998 486.599C552.429 486.365 552.914 486.25 553.404 486.265C553.808 486.208 554.22 486.236 554.613 486.348C555.006 486.46 555.371 486.653 555.685 486.915C556.376 487.653 556.197 488.898 555.596 489.714C554.918 490.478 554.112 491.117 553.213 491.602C552.539 492.006 551.963 492.555 551.528 493.21C551.479 493.302 551.437 493.397 551.403 493.495H546.298C545.172 492.911 544.131 492.178 543.201 491.316Z" fill="#6C63FF"/>
<path d="M632.675 472.079C632.035 471.558 631.57 470.853 631.341 470.06C631.237 469.664 631.273 469.244 631.442 468.871C631.611 468.498 631.904 468.195 632.27 468.011C633.128 467.678 634.057 468.274 634.742 468.875C635.427 469.477 636.231 470.161 637.124 470.066C636.657 469.641 636.307 469.102 636.109 468.502C635.911 467.902 635.871 467.262 635.992 466.642C636.034 466.387 636.143 466.149 636.308 465.951C636.785 465.439 637.648 465.659 638.22 466.058C640.007 467.333 640.537 469.798 640.549 472.014C640.638 471.198 640.638 470.375 640.549 469.56C640.514 469.151 640.581 468.739 640.741 468.361C640.902 467.984 641.153 467.651 641.472 467.392C641.903 467.159 642.388 467.043 642.878 467.059C643.281 467 643.693 467.028 644.085 467.14C644.477 467.252 644.841 467.445 645.153 467.708C645.85 468.446 645.665 469.691 645.064 470.507C644.387 471.271 643.58 471.91 642.681 472.395C642.007 472.799 641.431 473.348 640.996 474.003C640.947 474.095 640.905 474.19 640.871 474.289H635.766C634.641 473.695 633.601 472.952 632.675 472.079Z" fill="#6C63FF"/>
<path d="M602.858 491.316C602.217 490.794 601.749 490.09 601.518 489.297C601.414 488.899 601.45 488.477 601.62 488.103C601.79 487.729 602.085 487.425 602.453 487.242C603.311 486.915 604.24 487.51 604.925 488.112C605.61 488.713 606.414 489.398 607.307 489.273C606.838 488.849 606.488 488.311 606.289 487.71C606.091 487.11 606.052 486.468 606.176 485.848C606.215 485.593 606.324 485.354 606.491 485.158C606.968 484.645 607.826 484.866 608.397 485.265C610.184 486.539 610.72 489.005 610.726 491.22C610.828 490.406 610.84 489.583 610.762 488.767C610.726 488.358 610.791 487.947 610.951 487.569C611.111 487.191 611.361 486.858 611.679 486.599C612.11 486.366 612.595 486.251 613.085 486.265C613.489 486.208 613.902 486.235 614.295 486.347C614.688 486.459 615.053 486.652 615.366 486.915C616.057 487.653 615.878 488.898 615.277 489.714C614.598 490.477 613.792 491.116 612.894 491.602C612.218 492.003 611.641 492.553 611.209 493.21C611.157 493.3 611.116 493.396 611.084 493.495H605.973C604.841 492.913 603.793 492.18 602.858 491.316Z" fill="#6C63FF"/>
<path d="M518.286 452.432C518.286 452.432 516.368 454.933 519.168 458.715C521.967 462.497 524.278 465.689 523.337 468.047C523.337 468.047 519.114 461.026 515.677 460.9C512.241 460.775 514.504 456.636 518.286 452.432Z" fill="#6C63FF"/>
<path opacity="0.1" d="M518.286 452.432C518.117 452.673 517.984 452.938 517.893 453.218C514.54 457.154 512.753 460.835 515.975 460.924C518.983 461.014 522.587 466.386 523.444 467.738C523.419 467.843 523.386 467.947 523.343 468.047C523.343 468.047 519.12 461.026 515.683 460.9C512.247 460.775 514.504 456.636 518.286 452.432Z" fill="black"/>
<path d="M514.724 455.624C514.724 456.505 514.826 457.22 514.945 457.22C515.064 457.22 515.165 456.505 515.165 455.624C515.165 454.742 515.046 455.159 514.921 455.159C514.796 455.159 514.724 454.742 514.724 455.624Z" fill="#FFD037"/>
<path d="M513.503 456.678C514.278 457.095 514.951 457.351 515.01 457.244C515.07 457.137 514.492 456.708 513.718 456.285C512.943 455.862 513.247 456.172 513.188 456.285C513.128 456.398 512.729 456.255 513.503 456.678Z" fill="#FFD037"/>
<path d="M528.406 452.432C528.406 452.432 530.318 454.933 527.518 458.715C524.719 462.497 522.414 465.689 523.349 468.047C523.349 468.047 527.572 461.026 531.014 460.9C534.457 460.775 532.188 456.636 528.406 452.432Z" fill="#6C63FF"/>
<path opacity="0.1" d="M528.406 452.432C528.572 452.674 528.702 452.939 528.793 453.218C532.152 457.154 533.939 460.835 530.711 460.924C527.733 461.014 524.105 466.386 523.242 467.738C523.242 467.845 523.307 467.946 523.343 468.047C523.343 468.047 527.566 461.026 531.009 460.9C534.451 460.775 532.188 456.636 528.406 452.432Z" fill="black"/>
<path d="M531.962 455.624C531.962 456.505 531.866 457.22 531.741 457.22C531.616 457.22 531.521 456.505 531.521 455.624C531.521 454.742 531.646 455.159 531.765 455.159C531.884 455.159 531.962 454.742 531.962 455.624Z" fill="#FFD037"/>
<path d="M533.189 456.678C532.414 457.095 531.735 457.351 531.682 457.244C531.628 457.137 532.2 456.708 532.974 456.285C533.748 455.862 533.445 456.172 533.504 456.285C533.564 456.398 533.963 456.255 533.189 456.678Z" fill="#FFD037"/>
<path d="M531.354 467.72C531.354 467.72 525.993 467.553 524.385 466.403C522.777 465.254 516.148 463.884 515.749 465.731C515.35 467.577 507.696 474.896 513.748 474.944C519.799 474.991 527.792 474.003 529.406 473.02C531.021 472.037 531.354 467.72 531.354 467.72Z" fill="#A8A8A8"/>
<path opacity="0.2" d="M513.634 474.301C519.686 474.348 527.685 473.36 529.299 472.377C530.52 471.632 531.015 468.952 531.175 467.714H531.354C531.354 467.714 531.015 472.032 529.406 473.014C527.798 473.997 519.793 474.985 513.748 474.938C512.002 474.938 511.395 474.301 511.431 473.383C511.675 473.943 512.336 474.289 513.634 474.301Z" fill="black"/>
<path opacity="0.1" d="M165.638 485.575C177.059 485.575 186.318 484.207 186.318 482.519C186.318 480.832 177.059 479.464 165.638 479.464C154.217 479.464 144.958 480.832 144.958 482.519C144.958 484.207 154.217 485.575 165.638 485.575Z" fill="#6C63FF"/>
<path opacity="0.1" d="M215.712 513C227.133 513 236.391 511.632 236.391 509.945C236.391 508.257 227.133 506.89 215.712 506.89C204.29 506.89 195.032 508.257 195.032 509.945C195.032 511.632 204.29 513 215.712 513Z" fill="#6C63FF"/>
<path opacity="0.1" d="M436.627 440.014C444.189 440.014 450.32 439.329 450.32 438.484C450.32 437.638 444.189 436.953 436.627 436.953C429.064 436.953 422.933 437.638 422.933 438.484C422.933 439.329 429.064 440.014 436.627 440.014Z" fill="#6C63FF"/>
<path opacity="0.1" d="M372.616 484.05C380.178 484.05 386.309 483.365 386.309 482.519C386.309 481.674 380.178 480.989 372.616 480.989C365.053 480.989 358.922 481.674 358.922 482.519C358.922 483.365 365.053 484.05 372.616 484.05Z" fill="#6C63FF"/>
<path opacity="0.1" d="M343.758 511.475C351.32 511.475 357.451 510.79 357.451 509.945C357.451 509.099 351.32 508.414 343.758 508.414C336.195 508.414 330.065 509.099 330.065 509.945C330.065 510.79 336.195 511.475 343.758 511.475Z" fill="#6C63FF"/>
<defs>
<linearGradient id="paint0_linear" x1="183.876" y1="434.118" x2="183.876" y2="265.789" gradientUnits="userSpaceOnUse">
<stop stop-color="#808080" stop-opacity="0.25"/>
<stop offset="0.54" stop-color="#808080" stop-opacity="0.12"/>
<stop offset="1" stop-color="#808080" stop-opacity="0.1"/>
</linearGradient>
</defs>
</svg>
